<?xml version="1.0" encoding="UTF-8"?>
<svg id="logosandtypes_com" data-name="logosandtypes com" xmlns="http://www.w3.org/2000/svg" viewBox="-25 -25 200 200">
  <defs>
    <style>
      .cls-1 {
        fill: none;
      }

      .cls-2 {
        fill: #47d7ac;
      }
    </style>
  </defs>
  <path class="cls-1" d="M0,0H150V150H0V0Z"/>
  <path class="cls-2" d="M110.58,132.74c-14.73,0-33.5-9.5-49.85-25.44-.74,2.05-1.62,4.02-2.5,5.92-5.67,11.4-13.77,17.61-22.83,17.61s-17.3-6.14-22.97-17.25c-5.3-10.09-8.17-23.75-8.17-38.3,0-23.75,7.88-43.78,20.62-52.33,8.84-5.92,19.96-6.65,32.11-2.12,10.31,3.8,21.43,11.4,32.4,22.15,.96-2.56,2.14-5.12,3.53-7.53,5.74-10.09,13.77-15.64,22.53-15.64,17.53,0,30.71,23.83,30.71,55.47,0,13.74-2.5,26.31-7.29,36.47-2.06,4.6-4.93,8.77-8.39,12.5-3.02,3.29-6.85,5.77-11.12,7.24-2.8,.8-5.74,1.24-8.76,1.24Zm-47.57-32.74c20.54,21.34,42.64,28.8,54.27,25,5.96-1.97,11.41-7.67,15.39-16.15,4.34-9.21,6.63-20.83,6.63-33.55,0-13.45-2.58-25.95-7.36-35.23-4.49-8.7-10.31-13.52-16.49-13.52-8.91,0-16.64,8.84-20.77,21.93,16.57,18.13,27.47,40.27,26.51,54.45-.37,5.12-2.21,9.14-5.38,11.77l-.29,.22c-3.53,2.34-7.66,2.49-11.71,.29-10.53-5.55-19.07-25.95-19.07-45.32,0-6.58,.74-13.16,2.36-19.59-22.39-23.1-44.18-31.21-58.39-21.71-10.75,7.16-17.67,25.51-17.67,46.7,0,27.41,10.68,48.82,24.3,48.82,8.47,0,15.83-8.77,20.03-22.29-10.9-12.13-19.15-25.65-23.27-38.23-3.98-12.28-3.53-22.22,1.25-27.19,3.09-3.22,7.66-4.02,12.52-2.05,10.01,4.02,20.25,19.15,20.25,40.27,0,8.55-1.03,17.03-3.09,25.36Zm29.75-43.49c-.81,4.39-1.18,8.92-1.18,13.38,0,18.35,8.17,35.45,15.46,39.32,2.21,1.17,3.61,.73,4.57,.07,1.62-1.39,2.58-3.73,2.8-6.8,.74-11.47-8.17-30.11-21.65-45.97Zm-51.99-16.44c-.96,0-1.84,.37-2.5,1.02-2.21,2.27-3.39,8.99,.29,20.39,3.39,10.52,10.01,21.78,18.85,32.23,1.25-6.36,1.84-12.72,1.77-19.15,.07-20.1-9.72-31.43-15.91-33.91-.81-.37-1.62-.51-2.5-.58Z"/>
</svg>