<?xml version="1.0"?>
<svg xmlns="http://www.w3.org/2000/svg" xmlns:svg="http://www.w3.org/2000/svg" viewBox="0 0 512 512">

   <path d="m92.88,153.74l0,66.62c0,53.19 14.62,91.64 56.68,123.18c7.39,5.52 16.57,10.76 24.94,14.71l0,-189.02c0,-10.02 -7.93,-15.52 -19.18,-15.52l-62.43,0.03l0,0.01zm263.81,0c-11.25,0 -19.18,5.52 -19.18,15.52l0,189.02c8.31,-4.01 17.53,-9.18 25,-14.74c42,-31.54 56.62,-70.05 56.62,-123.18l0,-66.62l-62.43,0z" fill="#bf0000" fill-rule="evenodd" id="svg_1"/>
   <path d="m92.88,127.42l0,15.12l78.48,0c15.7,0.2 21.02,14.54 21.02,23.25l0,206.81a152.83,152.83 0 0 0 55.14,12.01l0,-243.29c0,-10.23 -5.06,-13.89 -16.34,-13.89l-138.3,0l0,-0.01zm187.92,0c-11.25,0 -16.28,3.66 -16.28,13.95l0,243.23c19.42,-0.58 38.02,-4.8 55.14,-12.01l0,-206.83c0,-8.66 5.29,-23.02 20.98,-23.25l78.48,0l0,-15.12l-138.32,0.03l0,0.01z" fill-rule="evenodd" id="svg_2"/>
</svg>